<svg width="80" height="32" viewBox="0 0 80 32" fill="none" xmlns="http://www.w3.org/2000/svg">
<g clip-path="url(#clip0)">
<path d="M24.4571 7.81144C24.4571 6.59304 24.4571 5.37465 24.4571 4.15449C24.4546 3.77339 24.5039 3.39369 24.6038 3.02576C24.7563 2.4162 25.0575 1.85344 25.4807 1.38731C25.904 0.921177 26.4363 0.566054 27.0304 0.353384C28.1375 -0.0894208 29.3707 -0.10572 30.4892 0.307672C32.0922 0.877311 33.0306 2.18537 33.0783 3.8855C33.0783 3.97692 33.0783 4.06131 33.0783 4.15977V11.4737C33.0837 11.6256 33.0784 11.7778 33.0624 11.929C33.024 12.2029 32.8939 12.456 32.6932 12.6474C32.4925 12.8388 32.2328 12.9573 31.9561 12.9839C31.6727 13.0224 31.3845 12.9664 31.1366 12.8245C30.8888 12.6826 30.6952 12.4628 30.5864 12.1998C30.5298 12.0257 30.507 11.8425 30.5192 11.66V8.17361C30.5192 8.0523 30.5192 7.93099 30.5192 7.80792C30.5193 7.76335 30.5024 7.7204 30.4719 7.68776C30.4414 7.65512 30.3995 7.63523 30.3548 7.63211C30.2785 7.62363 30.2018 7.61952 30.1251 7.6198H27.368C27.309 7.61952 27.25 7.62246 27.1912 7.62859C27.1721 7.62858 27.1532 7.63238 27.1356 7.63976C27.118 7.64713 27.1021 7.65794 27.0887 7.67154C27.0754 7.68513 27.0649 7.70125 27.058 7.71894C27.051 7.73662 27.0476 7.75552 27.0481 7.77452C27.0481 7.89583 27.0393 8.01714 27.0393 8.14021V11.4297C27.0393 11.5528 27.0393 11.6741 27.0393 11.7954C27.0311 12.0567 26.9385 12.3085 26.7752 12.5134C26.6118 12.7183 26.3865 12.8654 26.1326 12.9329C25.874 13.0096 25.5981 13.0062 25.3415 12.9233C25.0849 12.8404 24.8597 12.6819 24.6957 12.4688C24.5642 12.2979 24.4884 12.0912 24.4783 11.8763C24.4783 11.755 24.4783 11.6336 24.4783 11.5106V7.81144H24.4571ZM28.7536 5.29026C29.2591 5.29026 29.7628 5.29026 30.2682 5.29026C30.4874 5.29026 30.5157 5.26037 30.5192 5.05818C30.5192 4.73996 30.5351 4.41822 30.5192 4.09999C30.4626 3.02752 29.6125 2.32075 28.5327 2.43679C28.1321 2.4745 27.7591 2.65582 27.483 2.94695C27.2069 3.23808 27.0467 3.61915 27.0322 4.01912C27.0198 4.33734 27.0322 4.65732 27.0322 4.97731C27.0322 5.29729 27.0428 5.29201 27.3362 5.29377C27.8028 5.29201 28.2764 5.29026 28.7536 5.29026Z" fill="#FCD804"/>
<path d="M19.2519 5.25869C19.3024 5.09369 19.3174 4.91998 19.2961 4.74883C19.2961 3.69394 19.2961 2.63905 19.2961 1.59472C19.2961 1.48747 19.2961 1.38022 19.2961 1.27473C19.2289 0.344674 20.3194 -0.323421 21.2402 0.182925C21.4177 0.276055 21.5681 0.413178 21.6768 0.581035C21.7854 0.748891 21.8487 0.941803 21.8605 1.14111C21.8711 1.26243 21.8605 1.3855 21.8605 1.50681V11.4737C21.8676 11.6102 21.8676 11.7469 21.8605 11.8834C21.8303 12.1508 21.7129 12.4009 21.5261 12.5956C21.3394 12.7902 21.0937 12.9186 20.8266 12.9611C20.5461 13.0128 20.2563 12.9722 20.0012 12.8452C19.746 12.7183 19.5394 12.5121 19.4127 12.2579C19.3311 12.0597 19.2961 11.8456 19.3102 11.632V8.25633C19.3102 8.10337 19.3102 7.95217 19.3102 7.79921C19.3102 7.75258 19.2916 7.70786 19.2585 7.67489C19.2253 7.64192 19.1804 7.6234 19.1335 7.6234C19.0274 7.6234 18.9196 7.61285 18.8136 7.61285H15.2789C14.8034 7.61285 14.8176 7.6023 14.8176 8.0559V11.3964C14.8176 11.5194 14.8176 11.6408 14.8176 11.7621C14.8183 12.0159 14.7378 12.2634 14.5879 12.4689C14.4379 12.6743 14.2262 12.827 13.9834 12.9049C13.7365 12.9932 13.4689 13.0069 13.2142 12.9443C12.9594 12.8818 12.729 12.7457 12.5518 12.5532C12.3716 12.3616 12.2663 12.1121 12.2549 11.85C12.2549 11.7287 12.2549 11.6056 12.2549 11.4843V1.52439C12.2549 1.4189 12.2549 1.31165 12.2549 1.20441C12.2549 0.483567 12.9442 -0.079039 13.6971 0.0211753C14.0104 0.0568913 14.2984 0.209294 14.5034 0.44773C14.7083 0.686166 14.8149 0.99295 14.8017 1.30638C14.7858 2.43335 14.8017 3.56208 14.8017 4.68905C14.8017 5.39231 14.7168 5.29561 15.4079 5.29913C16.5272 5.29913 17.6465 5.29913 18.7659 5.29913C18.929 5.31438 19.0936 5.30069 19.2519 5.25869Z" fill="#FCD804"/>
<path d="M9.6481 7.873C9.6481 9.07791 9.6481 10.2822 9.6481 11.486C9.65611 11.6838 9.63467 11.8817 9.58447 12.0732C9.49851 12.3687 9.30803 12.6233 9.04817 12.79C8.78832 12.9567 8.47662 13.0244 8.17058 12.9804C7.8797 12.941 7.6116 12.8024 7.41207 12.5882C7.21254 12.374 7.09395 12.0975 7.07658 11.806C7.06597 11.653 7.07658 11.5001 7.07658 11.3489C7.07658 9.23908 7.07658 7.13575 7.07658 5.03887C7.08365 4.58014 6.98448 4.12594 6.78673 3.71147C6.6672 3.45051 6.49685 3.21572 6.28553 3.02066C6.07422 2.8256 5.82612 2.67416 5.5556 2.57508C5.28508 2.476 4.99749 2.43126 4.70948 2.44344C4.42146 2.45562 4.13873 2.52448 3.87764 2.64603C3.05051 3.01173 2.67936 3.70092 2.58746 4.55538C2.57949 4.70765 2.57949 4.86023 2.58746 5.0125V11.3664C2.58746 11.4877 2.58746 11.6108 2.58746 11.7321C2.57901 12.0569 2.44655 12.3663 2.21701 12.5974C1.98746 12.8285 1.67807 12.964 1.35171 12.9763C1.02535 12.9886 0.70653 12.8768 0.460049 12.6637C0.213568 12.4506 0.0579283 12.152 0.0247702 11.8288C0.0156206 11.7224 0.0126709 11.6156 0.0159342 11.5088C0.0159342 9.11659 0.0159342 6.72434 0.0159342 4.33209C0.00728201 3.82846 0.0806941 3.32675 0.23332 2.84646C0.508164 1.99541 1.09155 1.27656 1.8699 0.82987C2.52776 0.447488 3.25514 0.198324 4.01019 0.0967231C5.03156 -0.061517 6.07685 0.0525373 7.03946 0.427255C8.49578 0.984587 9.33704 2.04299 9.58447 3.57258C9.62857 3.85879 9.64985 4.14803 9.6481 4.43758C9.64692 5.58507 9.64692 6.7302 9.6481 7.873Z" fill="#FCD804"/>
<path d="M70.3558 7.78864C70.3558 6.63178 70.3558 5.47316 70.3558 4.31454C70.3523 3.91782 70.398 3.52218 70.4918 3.13658C70.6057 2.65226 70.819 2.19657 71.1182 1.79811C71.4175 1.39966 71.7963 1.06703 72.2309 0.821105C73.0201 0.377002 73.8989 0.113716 74.8033 0.0504508C75.7078 -0.0128146 76.615 0.125536 77.4588 0.455411C78.8727 1.01626 79.691 2.0606 79.9332 3.5515C79.9794 3.83752 80.0019 4.12683 80.0003 4.41651C80.0003 6.74781 80.0003 9.0797 80.0003 11.4122C80.0047 11.5488 80.0012 11.6856 79.9897 11.8218C79.9627 12.116 79.8345 12.392 79.6267 12.6031C79.419 12.8142 79.1444 12.9475 78.8492 12.9806C78.5541 13.0136 78.2566 12.9444 78.0068 12.7845C77.757 12.6247 77.5704 12.384 77.4783 12.1031C77.4322 11.9259 77.4149 11.7425 77.427 11.5599V6.02697C77.427 5.67534 77.427 5.32372 77.427 4.97209C77.4256 4.52872 77.3241 4.09132 77.1301 3.69216C76.8873 3.17437 76.4487 2.77298 75.9098 2.5754C75.3709 2.37783 74.7753 2.40006 74.2528 2.63727C73.4027 3.00121 73.0263 3.69216 72.9344 4.57123C72.9273 4.70827 72.9273 4.84559 72.9344 4.98264V11.4755C72.9344 11.5669 72.9344 11.6513 72.9344 11.7497C72.9281 12.0747 72.7975 12.3851 72.5692 12.6175C72.3408 12.85 72.0319 12.987 71.7055 13.0007C71.379 13.0144 71.0597 12.9036 70.8125 12.6911C70.5653 12.4786 70.4089 12.1803 70.3752 11.857C70.3622 11.7208 70.3581 11.584 70.3628 11.4473C70.3569 10.2272 70.3546 9.00762 70.3558 7.78864Z" fill="#FCD804"/>
<path d="M41.0381 7.25236V11.4104C41.0381 11.5317 41.0381 11.653 41.0381 11.7761C41.0575 12.4371 40.4778 12.9488 39.8398 12.9769C39.5158 13.0066 39.193 12.9093 38.9401 12.7057C38.6872 12.5021 38.5242 12.2082 38.486 11.8868C38.473 11.7354 38.4689 11.5834 38.4736 11.4315C38.4736 8.61844 38.4736 5.80013 38.4736 2.97655C38.4736 2.30318 38.5231 2.38581 37.8922 2.3823C37.2948 2.3823 36.6974 2.3823 36.1 2.3823C35.8853 2.39049 35.6714 2.35271 35.4726 2.27153C35.2509 2.18101 35.0626 2.02473 34.9333 1.82395C34.804 1.62317 34.74 1.38765 34.75 1.14942C34.7601 0.911196 34.8437 0.681828 34.9894 0.492525C35.1351 0.303222 35.3359 0.163174 35.5645 0.0914343C35.7843 0.0249409 36.0137 -0.00418479 36.2432 0.00528492C38.1578 0.00528492 40.0719 0.00528492 41.9854 0.00528492H43.3622C43.531 0.00177682 43.6994 0.0225021 43.8623 0.0668204C44.1239 0.134498 44.3551 0.28754 44.5188 0.501436C44.6826 0.715332 44.7694 0.977705 44.7655 1.24654C44.7423 1.52254 44.6263 1.78272 44.4361 1.985C44.2459 2.18728 43.9927 2.31982 43.7174 2.3612C43.5809 2.37827 43.4432 2.38474 43.3056 2.38054C42.7383 2.38054 42.1727 2.38054 41.6054 2.38054C41.4834 2.38054 41.3597 2.38054 41.2378 2.38054C41.1158 2.38054 41.061 2.44383 41.0451 2.58448C41.0292 2.72514 41.0451 2.85875 41.0451 2.99413L41.0381 7.25236Z" fill="#FCD804"/>
<path d="M58.8659 7.2119V11.4631C58.8659 11.5703 58.8659 11.6776 58.8659 11.7831C58.9065 12.3967 58.3268 12.9804 57.6287 12.9839C56.9306 12.9874 56.3704 12.5233 56.3173 11.8446C56.3067 11.7092 56.3173 11.5703 56.3173 11.4332C56.3173 8.62017 56.3173 5.80128 56.3173 2.97653C56.3173 2.31019 56.3721 2.38931 55.7306 2.38579C55.1332 2.38579 54.5358 2.38579 53.9385 2.38579C53.7391 2.39444 53.5401 2.36274 53.3535 2.29261C53.1146 2.20458 52.9111 2.0414 52.7739 1.82784C52.6367 1.61428 52.5734 1.36202 52.5935 1.10938C52.6172 0.865093 52.7167 0.634194 52.8782 0.448658C53.0397 0.263123 53.2552 0.132133 53.4948 0.0738298C53.6574 0.0307528 53.825 0.00946681 53.9932 0.0105364C56.3992 0.0105364 58.8046 0.0105364 61.2094 0.0105364C61.3778 0.0106551 61.5454 0.0331227 61.7078 0.0773455C61.9696 0.145848 62.2004 0.300364 62.3627 0.515801C62.5251 0.731238 62.6094 0.994943 62.6021 1.26409C62.5789 1.54102 62.4611 1.80168 62.2681 2.00261C62.0751 2.20353 61.8187 2.33257 61.5417 2.36821C61.405 2.38375 61.2674 2.38963 61.1299 2.38579H59.382C59.2741 2.38579 59.1663 2.38579 59.0603 2.38579C58.9242 2.38579 58.8836 2.44381 58.8712 2.58974C58.8588 2.73566 58.8712 2.83236 58.8712 2.95543L58.8659 7.2119Z" fill="#FCD804"/>
<path d="M48.6218 22.1209C47.4296 22.1515 46.2417 21.9674 45.1153 21.5777C43.92 21.177 42.8371 20.5004 41.9552 19.6033C41.1512 18.7961 40.6146 17.7636 40.4176 16.6443C40.3536 16.2374 40.3311 15.825 40.3505 15.4136C40.3526 15.2762 40.389 15.1414 40.4565 15.0215C40.5475 14.8698 40.6926 14.7577 40.8629 14.7076C41.0331 14.6574 41.2162 14.6728 41.3755 14.7508C41.4382 14.7796 41.4938 14.8215 41.5387 14.8737C41.5835 14.9259 41.6165 14.9871 41.6353 15.0532C41.6463 15.0978 41.6546 15.143 41.6601 15.1886C41.9817 17.0768 43.5459 18.7453 45.2107 19.3747C45.9392 19.6553 46.7037 19.8329 47.4818 19.9021C48.6113 20.0137 49.7511 19.9592 50.8645 19.7404C52.5789 19.3782 53.9433 18.5097 54.9048 17.0381C55.2717 16.474 55.52 15.8419 55.6347 15.1798C55.6492 15.0738 55.6932 14.9739 55.7615 14.8913C55.8299 14.8087 55.92 14.7467 56.0217 14.7121C56.1028 14.6769 56.1903 14.6587 56.2788 14.6587C56.3673 14.6587 56.4548 14.6768 56.5359 14.7119C56.617 14.7471 56.69 14.7985 56.7502 14.863C56.8104 14.9274 56.8567 15.0035 56.886 15.0866C56.931 15.216 56.9525 15.3523 56.9496 15.4892C57.0137 16.8126 56.5845 18.1129 55.7443 19.1409C54.9796 20.0803 53.9963 20.8202 52.8794 21.2964C51.5396 21.8834 50.085 22.1651 48.6218 22.1209Z" fill="white"/>
<path d="M65.198 6.49634V1.60694C65.198 1.49969 65.198 1.39245 65.198 1.28696C65.1273 0.369205 66.1824 -0.295374 67.0873 0.159986C67.2757 0.248418 67.4372 0.385017 67.5552 0.555831C67.6731 0.726645 67.7435 0.925553 67.7589 1.13224C67.7659 1.2687 67.7659 1.40543 67.7589 1.54189V11.4596C67.7645 11.6121 67.7604 11.7647 67.7465 11.9167C67.6974 12.2356 67.5264 12.5233 67.2693 12.7198C67.0121 12.9164 66.6886 13.0066 66.3662 12.9716C65.7087 12.9294 65.1785 12.3949 65.1927 11.7901C65.1927 11.6688 65.1927 11.5475 65.1927 11.4262L65.198 6.49634Z" fill="#FCD804"/>
<path d="M40.9357 32H39.9248C39.8334 32.0032 39.7419 32.0003 39.6509 31.9912C39.5509 31.9802 39.458 31.9346 39.3885 31.8622C39.319 31.7899 39.2773 31.6955 39.2709 31.5956C39.2599 31.4886 39.288 31.3813 39.35 31.2932C39.4119 31.2051 39.5037 31.1421 39.6084 31.1156C39.7286 31.0947 39.8507 31.0871 39.9725 31.0928H41.8565C41.9789 31.0981 42.1015 31.0911 42.2224 31.0717C42.3067 31.0617 42.3879 31.0344 42.4611 30.9917C42.5343 30.9489 42.5978 30.8915 42.6476 30.8232C42.6974 30.7548 42.7324 30.6769 42.7505 30.5944C42.7686 30.5119 42.7693 30.4266 42.7526 30.3438C42.7501 30.3251 42.7435 30.3071 42.7333 30.2912C42.7231 30.2752 42.7096 30.2617 42.6936 30.2515C42.6776 30.2413 42.6596 30.2347 42.6408 30.2321C42.622 30.2295 42.6028 30.231 42.5847 30.2366C42.4999 30.2665 42.408 30.3051 42.3302 30.3368C41.8663 30.5071 41.3611 30.5317 40.8827 30.4071C39.999 30.1856 39.4688 29.5948 39.3009 28.6999C39.2515 28.4063 39.2617 28.1057 39.3309 27.816C39.4 27.5263 39.5268 27.2533 39.7037 27.0131C39.8806 26.7729 40.1041 26.5704 40.3609 26.4174C40.6177 26.2644 40.9027 26.1642 41.1991 26.1225C41.5846 26.0743 41.976 26.1288 42.3334 26.2803C42.6908 26.4319 43.0014 26.6751 43.2334 26.9851C43.4654 27.2951 43.6106 27.6608 43.654 28.0448C43.6975 28.4289 43.6377 28.8176 43.4807 29.1711C43.4355 29.2645 43.4139 29.3675 43.4179 29.4711C43.4219 29.5747 43.4514 29.6757 43.5037 29.7654C43.62 30.003 43.6735 30.2663 43.6591 30.5302C43.6447 30.7941 43.5628 31.05 43.4213 31.2737C43.2797 31.4974 43.0832 31.6815 42.8502 31.8086C42.6172 31.9357 42.3555 32.0015 42.0898 32C41.7081 32 41.3246 32 40.941 32H40.9357ZM40.1722 28.285C40.1644 28.4587 40.1919 28.6321 40.253 28.795C40.314 28.9578 40.4075 29.1068 40.5277 29.233C40.6479 29.3591 40.7924 29.4599 40.9526 29.5292C41.1129 29.5986 41.2855 29.6352 41.4602 29.6367C41.635 29.6382 41.8082 29.6047 41.9696 29.5382C42.1311 29.4717 42.2774 29.3734 42.3998 29.2494C42.5222 29.1254 42.6183 28.9781 42.6823 28.8163C42.7462 28.6546 42.7767 28.4816 42.772 28.3079C42.768 27.9622 42.6288 27.6316 42.3841 27.3861C42.1393 27.1407 41.8081 26.9996 41.4606 26.9928C40.6989 26.9998 40.1404 27.7136 40.1722 28.285Z" fill="white"/>
<path d="M50.8262 26.8311C50.8262 26.3757 50.8262 25.9186 50.8262 25.4615C50.8262 25.356 50.8262 25.2488 50.8262 25.1433C50.8314 25.028 50.8789 24.9186 50.9596 24.8357C51.0404 24.7528 51.1488 24.7021 51.2645 24.6932C51.3883 24.6886 51.5092 24.7315 51.6023 24.8129C51.6953 24.8944 51.7534 25.0082 51.7646 25.131C51.7744 25.2215 51.7779 25.3125 51.7752 25.4035C51.7752 25.5266 51.7752 25.6479 51.7752 25.7692C51.7752 25.945 51.8124 25.9749 52.0015 25.9766C52.5069 25.9766 53.0106 25.9766 53.5161 25.9766C53.6379 25.9696 53.7601 25.9696 53.8819 25.9766C53.9977 25.9881 54.1054 26.0409 54.185 26.1252C54.2647 26.2096 54.3108 26.3199 54.315 26.4355C54.3127 26.5505 54.2693 26.661 54.1925 26.747C54.1157 26.8331 54.0106 26.8891 53.8961 26.9049C53.79 26.9176 53.683 26.9223 53.5762 26.919H52.2595C52.1517 26.919 52.0457 26.919 51.9378 26.9313C51.8991 26.9327 51.8624 26.9491 51.8357 26.977C51.8089 27.005 51.7942 27.0422 51.7947 27.0808C51.7723 27.5213 51.7764 27.9628 51.8071 28.4029C51.8365 28.6265 51.9234 28.8388 52.0594 29.0193C52.1953 29.1998 52.3758 29.3423 52.5833 29.4332C52.7908 29.524 53.0184 29.5601 53.244 29.5379C53.4696 29.5158 53.6857 29.4361 53.8713 29.3066C53.9208 29.2732 53.9632 29.2257 54.0145 29.1941C54.1126 29.1196 54.2355 29.0852 54.3583 29.0976C54.481 29.11 54.5944 29.1683 54.6755 29.2609C54.7156 29.3077 54.7455 29.3623 54.7632 29.4212C54.7809 29.4801 54.7861 29.542 54.7785 29.6031C54.7708 29.6641 54.7505 29.7228 54.7188 29.7756C54.687 29.8284 54.6446 29.874 54.5942 29.9096C54.3716 30.1207 54.1022 30.2767 53.8077 30.365C52.712 30.685 51.3087 30.2226 50.9039 28.8213C50.8484 28.6001 50.8235 28.3724 50.8297 28.1444C50.8297 27.7014 50.8297 27.2654 50.8297 26.8188L50.8262 26.8311Z" fill="white"/>
<path d="M47.8636 30.4739C47.572 30.4739 47.2803 30.4739 46.9905 30.4739C46.9332 30.4795 46.8753 30.4732 46.8206 30.4553C46.7658 30.4373 46.7155 30.4082 46.6727 30.3698C46.63 30.3314 46.5957 30.2846 46.5722 30.2323C46.5487 30.1799 46.5365 30.1233 46.5363 30.066C46.5305 29.9508 46.5677 29.8375 46.6408 29.7479C46.7139 29.6584 46.8176 29.5988 46.9322 29.5807C47.0388 29.5675 47.1464 29.5622 47.2538 29.5649H48.4009C48.5077 29.5664 48.6145 29.5617 48.7208 29.5509C48.8157 29.5381 48.9031 29.4928 48.9681 29.4228C49.0331 29.3528 49.0715 29.2624 49.0767 29.1673C49.0819 29.0722 49.0537 28.9782 48.9968 28.9015C48.9399 28.8249 48.8579 28.7704 48.7649 28.7474C48.6592 28.7306 48.5521 28.7235 48.445 28.7263C48.1552 28.7263 47.8636 28.7105 47.5737 28.7263C46.7378 28.7755 46.029 27.8208 46.4108 26.9013C46.4993 26.6629 46.6586 26.4568 46.8676 26.3105C47.0765 26.1642 47.3253 26.0845 47.5808 26.082C48.1446 26.0557 48.7119 26.082 49.2792 26.082C49.3392 26.0828 49.3988 26.0923 49.456 26.1102C49.5482 26.1393 49.6283 26.1975 49.6841 26.2761C49.7399 26.3547 49.7684 26.4492 49.7652 26.5454C49.762 26.6416 49.7273 26.7341 49.6664 26.8088C49.6054 26.8835 49.5216 26.9364 49.4277 26.9593C49.3219 26.9758 49.2148 26.9817 49.1078 26.9769H47.8229C47.7157 26.9735 47.6084 26.9818 47.503 27.0015C47.4149 27.0289 47.3383 27.0844 47.285 27.1593C47.2316 27.2343 47.2046 27.3247 47.208 27.4165C47.2114 27.5082 47.2451 27.5964 47.3039 27.6672C47.3626 27.7381 47.4432 27.7877 47.5331 27.8085C47.6545 27.8218 47.7768 27.8271 47.8989 27.8244C48.2047 27.8244 48.5122 27.8103 48.8162 27.8367C49.1174 27.8709 49.3978 28.0062 49.6114 28.2202C49.825 28.4342 49.959 28.7142 49.9913 29.014C50.0236 29.3139 49.9523 29.6157 49.7892 29.8699C49.626 30.124 49.3807 30.3154 49.0937 30.4123C48.9616 30.4512 48.8249 30.4719 48.6872 30.4739C48.4115 30.4844 48.1358 30.4739 47.8618 30.4739H47.8636Z" fill="white"/>
<path d="M63.5158 30.4739C63.2242 30.4739 62.9343 30.4739 62.6427 30.4739C62.5854 30.4799 62.5275 30.4742 62.4725 30.457C62.4176 30.4398 62.3668 30.4115 62.3233 30.3739C62.2799 30.3362 62.2447 30.2901 62.22 30.2383C62.1952 30.1866 62.1815 30.1303 62.1796 30.073C62.1732 29.9499 62.2152 29.8292 62.2967 29.7363C62.3782 29.6435 62.4927 29.5858 62.6162 29.5755C62.7231 29.5649 62.8305 29.5614 62.9379 29.5649C63.3196 29.5649 63.7014 29.5649 64.0849 29.5649C64.207 29.5676 64.3291 29.557 64.4489 29.5333C64.5245 29.5151 64.5919 29.4728 64.6407 29.4127C64.6896 29.3526 64.7173 29.2782 64.7194 29.201C64.7329 29.1179 64.7194 29.0327 64.681 28.9578C64.6425 28.8829 64.5811 28.8221 64.5055 28.7843C64.3936 28.7386 64.2726 28.7194 64.152 28.728C63.8463 28.728 63.5388 28.7105 63.233 28.728C62.9242 28.729 62.6258 28.6174 62.3943 28.4142C62.1627 28.2111 62.014 27.9305 61.9764 27.6257C61.9241 27.3153 61.9842 26.9965 62.146 26.7261C62.3078 26.4556 62.5609 26.2511 62.8601 26.1488C63.0204 26.0967 63.1881 26.0705 63.3567 26.0715C63.8463 26.0715 64.3358 26.0715 64.8254 26.0715C64.9017 26.0688 64.9782 26.0741 65.0534 26.0873C65.1587 26.1091 65.2526 26.1682 65.3175 26.2535C65.3825 26.3388 65.4143 26.4447 65.4069 26.5514C65.4015 26.6513 65.3616 26.7462 65.294 26.8202C65.2263 26.8942 65.1351 26.9427 65.0357 26.9576C64.9442 26.9681 64.852 26.9717 64.76 26.9681H63.5228C63.4161 26.9643 63.3091 26.9684 63.203 26.9804C63.1037 26.9959 63.0138 27.0475 62.9504 27.1251C62.8871 27.2027 62.8549 27.3008 62.8601 27.4006C62.8577 27.4998 62.8926 27.5962 62.958 27.671C63.0234 27.7458 63.1145 27.7936 63.2136 27.805C63.4875 27.8226 63.7632 27.805 64.0389 27.8173C64.2221 27.8146 64.4052 27.8252 64.5868 27.849C64.8986 27.9089 65.1779 28.0793 65.3729 28.3286C65.5679 28.5779 65.6654 28.8891 65.6472 29.2045C65.6437 29.5125 65.5274 29.8086 65.3202 30.0374C65.1129 30.2662 64.829 30.412 64.5214 30.4475C64.1858 30.4651 63.8496 30.4651 63.514 30.4475L63.5158 30.4739Z" fill="white"/>
<path d="M36.2273 30.5583C35.9384 30.5626 35.6516 30.5083 35.3844 30.3989C35.1172 30.2894 34.8751 30.1271 34.673 29.9217C34.4708 29.7163 34.3127 29.4721 34.2084 29.2041C34.104 28.936 34.0555 28.6497 34.0658 28.3624C34.0673 28.0711 34.1275 27.783 34.2427 27.5151C34.358 27.2472 34.526 27.0051 34.7368 26.8029C34.9477 26.6006 35.1971 26.4425 35.4704 26.3377C35.7437 26.2329 36.0353 26.1837 36.328 26.1929C37.6112 26.2052 38.4948 27.3532 38.4719 28.4345C38.4489 29.5157 37.4928 30.6216 36.2273 30.5583ZM37.5634 28.3976C37.5616 28.0503 37.4214 27.718 37.1735 27.4734C36.9257 27.2289 36.5905 27.0921 36.2415 27.093C35.9009 27.1004 35.5767 27.2398 35.338 27.4815C35.0993 27.7232 34.9649 28.0482 34.9636 28.387C34.9636 29.0903 35.5911 29.7232 36.2856 29.6951C36.6262 29.686 36.9499 29.5455 37.1883 29.3034C37.4268 29.0613 37.5613 28.7365 37.5634 28.3976Z" fill="white"/>
<path d="M59.5052 30.4722C58.314 30.5091 57.2853 29.449 57.2871 28.3079C57.2985 27.7309 57.5316 27.1801 57.9385 26.7688C58.3455 26.3574 58.8953 26.1167 59.4751 26.0962C59.9391 26.0812 60.3947 26.2218 60.7688 26.4953C60.8433 26.5485 60.9136 26.6073 60.9792 26.6711C61.0247 26.7062 61.0626 26.7501 61.0907 26.8001C61.1187 26.8501 61.1363 26.9053 61.1424 26.9623C61.1486 27.0192 61.143 27.0769 61.1262 27.1317C61.1094 27.1865 61.0816 27.2373 61.0445 27.2812C60.9682 27.3675 60.8634 27.4237 60.7489 27.4399C60.6345 27.456 60.5181 27.4309 60.4207 27.3691C60.3411 27.3216 60.274 27.2565 60.198 27.2073C60.002 27.0703 59.7692 26.9949 59.5296 26.9912C59.2901 26.9874 59.055 27.0554 58.8548 27.1862C58.6439 27.2997 58.4704 27.471 58.3547 27.6799C58.2391 27.8888 58.1863 28.1263 58.2026 28.3642C58.2143 28.5819 58.2815 28.793 58.3978 28.9778C58.5141 29.1625 58.6757 29.3148 58.8675 29.4203C59.0593 29.5258 59.2749 29.5811 59.494 29.5808C59.7132 29.5806 59.9287 29.5249 60.1202 29.4191C60.2245 29.3552 60.3254 29.2859 60.4224 29.2116C60.4852 29.1673 60.5587 29.1403 60.6354 29.1335C60.7121 29.1267 60.7893 29.1403 60.859 29.1729C60.9269 29.1977 60.9874 29.2394 61.0345 29.2941C61.0816 29.3487 61.1138 29.4145 61.128 29.4851C61.1422 29.5557 61.1379 29.6287 61.1155 29.6972C61.0932 29.7657 61.0535 29.8273 61.0004 29.8762C60.6881 30.1966 60.2742 30.3997 59.8286 30.4511C59.7225 30.4669 59.6147 30.4669 59.5052 30.4722Z" fill="white"/>
<path d="M31.7223 27.1318C31.7223 26.5076 31.7223 25.8835 31.7223 25.2593C31.7155 25.1836 31.7253 25.1073 31.7509 25.0357C31.7765 24.9641 31.8174 24.8989 31.8708 24.8444C31.9214 24.7865 31.9872 24.7436 32.0608 24.7207C32.1344 24.6977 32.213 24.6955 32.2879 24.7143C32.3705 24.7337 32.446 24.7761 32.5054 24.8365C32.5649 24.8969 32.6059 24.9728 32.6237 25.0554C32.6426 25.1757 32.6491 25.2977 32.6431 25.4193C32.6431 26.4848 32.6431 27.5496 32.6431 28.6139C32.6431 28.737 32.6431 28.8583 32.6431 28.9796C32.6431 29.1258 32.6945 29.2673 32.7885 29.3797C32.8824 29.4921 33.0129 29.5682 33.1574 29.5949C33.2299 29.6143 33.3112 29.609 33.3836 29.6266C33.481 29.6491 33.5682 29.7028 33.632 29.7793C33.6959 29.8558 33.7328 29.951 33.7371 30.0503C33.7265 30.1491 33.685 30.2422 33.6184 30.3163C33.5518 30.3905 33.4635 30.4419 33.3659 30.4635C33.1385 30.5066 32.9032 30.4783 32.6926 30.3826C32.4051 30.2701 32.1585 30.0737 31.9854 29.8192C31.8122 29.5647 31.7205 29.264 31.7223 28.9567C31.7099 28.3484 31.7223 27.7401 31.7223 27.1318Z" fill="white"/>
<path d="M45.4535 28.3009V29.7584C45.4574 29.8646 45.4533 29.971 45.4412 30.0766C45.429 30.1834 45.3778 30.282 45.2973 30.3537C45.2168 30.4253 45.1126 30.465 45.0046 30.4652C44.889 30.4753 44.7738 30.4408 44.683 30.3688C44.5922 30.2968 44.5327 30.1928 44.5168 30.0784C44.5062 29.988 44.5027 29.8968 44.5062 29.8059V26.7994C44.5062 26.7238 44.5062 26.6465 44.5062 26.5709C44.5086 26.51 44.5234 26.4501 44.5497 26.395C44.576 26.3399 44.6132 26.2907 44.6591 26.2503C44.705 26.2099 44.7586 26.1791 44.8168 26.1599C44.875 26.1407 44.9365 26.1334 44.9976 26.1384C45.1136 26.1383 45.225 26.1833 45.3082 26.2638C45.3914 26.3442 45.4397 26.4538 45.4429 26.5691C45.4535 26.6746 45.4429 26.7819 45.4429 26.8874L45.4535 28.3009Z" fill="white"/>
<path d="M56.4692 28.2991V29.7566C56.4736 29.8628 56.4701 29.9692 56.4586 30.0748C56.444 30.1894 56.3854 30.294 56.2952 30.3667C56.205 30.4394 56.09 30.4747 55.9743 30.4651C55.8666 30.4656 55.7624 30.4269 55.6814 30.3563C55.6004 30.2857 55.548 30.1881 55.5342 30.0819C55.5231 29.9915 55.5189 29.9004 55.5219 29.8093V26.7994C55.5175 26.7233 55.5175 26.647 55.5219 26.5708C55.5292 26.4525 55.5816 26.3413 55.6685 26.26C55.7554 26.1788 55.8701 26.1335 55.9893 26.1335C56.1086 26.1335 56.2233 26.1788 56.3102 26.26C56.3971 26.3413 56.4495 26.4525 56.4568 26.5708C56.4621 26.6616 56.4621 26.7526 56.4568 26.8434L56.4692 28.2991Z" fill="white"/>
<path d="M45.4512 25.189C45.4503 25.3109 45.402 25.4278 45.3163 25.515C45.2306 25.6022 45.1142 25.653 44.9917 25.6566C44.9261 25.6585 44.8608 25.6471 44.7999 25.6231C44.7389 25.5991 44.6835 25.5629 44.637 25.5169C44.5906 25.4708 44.554 25.4158 44.5297 25.3552C44.5053 25.2947 44.4936 25.2298 44.4953 25.1645C44.497 25.0993 44.512 25.0351 44.5395 24.9759C44.5669 24.9166 44.6062 24.8636 44.655 24.8199C44.7038 24.7763 44.761 24.7431 44.8231 24.7222C44.8853 24.7013 44.951 24.6932 45.0164 24.6985C45.1384 24.7088 45.2518 24.7655 45.3328 24.8569C45.4137 24.9483 45.4562 25.0672 45.4512 25.189Z" fill="#32332E"/>
<path d="M56.4655 25.2171C56.4541 25.3075 56.4166 25.3926 56.3574 25.4622C56.2982 25.5317 56.2199 25.5825 56.1322 25.6086C56.0444 25.6346 55.951 25.6347 55.8632 25.6088C55.7754 25.5829 55.697 25.5322 55.6377 25.4628C55.5784 25.3934 55.5407 25.3083 55.5292 25.2179C55.5176 25.1276 55.5328 25.0358 55.5727 24.9538C55.6127 24.8719 55.6758 24.8033 55.7543 24.7563C55.8328 24.7094 55.9233 24.6863 56.0148 24.6897C56.08 24.6928 56.1437 24.7093 56.2022 24.738C56.2607 24.7666 56.3127 24.8069 56.3549 24.8563C56.3972 24.9058 56.4288 24.9633 56.4478 25.0253C56.4668 25.0874 56.4728 25.1526 56.4655 25.2171Z" fill="#32332E"/>
</g>
<defs>
<clipPath id="clip0">
<path d="M0 0H80V32H0V0Z" fill="white"/>
</clipPath>
</defs>
</svg>
