<svg width="413" height="166" viewBox="0 0 413 166" fill="none" xmlns="http://www.w3.org/2000/svg">
<g clip-path="url(#clip0)">
<path d="M126.258 40.5218C126.258 34.2014 126.258 27.881 126.258 21.5514C126.245 19.5745 126.5 17.6048 127.016 15.6962C127.803 12.5341 129.358 9.61475 131.543 7.19669C133.728 4.77862 136.476 2.93642 139.543 1.8332C145.258 -0.463855 151.625 -0.548407 157.399 1.59606C165.674 4.55107 170.519 11.3366 170.765 20.156C170.765 20.6303 170.765 21.0681 170.765 21.5788V59.5196C170.793 60.3079 170.765 61.0972 170.683 61.8818C170.485 63.3028 169.813 64.6155 168.777 65.6083C167.741 66.6011 166.4 67.2161 164.972 67.354C163.509 67.5539 162.021 67.263 160.741 66.5269C159.462 65.7908 158.463 64.651 157.9 63.2863C157.608 62.3834 157.491 61.4332 157.554 60.4863V42.4006C157.554 41.7713 157.554 41.142 157.554 40.5036C157.554 40.2724 157.467 40.0496 157.31 39.8802C157.152 39.7109 156.936 39.6077 156.705 39.5916C156.311 39.5476 155.915 39.5263 155.519 39.5277H141.286C140.981 39.5263 140.676 39.5415 140.373 39.5733C140.275 39.5733 140.177 39.593 140.086 39.6312C139.995 39.6695 139.913 39.7256 139.844 39.7961C139.775 39.8666 139.721 39.9503 139.685 40.042C139.649 40.1337 139.632 40.2318 139.634 40.3303C139.634 40.9596 139.589 41.5889 139.589 42.2274V59.2916C139.589 59.93 139.589 60.5593 139.589 61.1886C139.546 62.5444 139.068 63.8505 138.225 64.9133C137.382 65.9762 136.219 66.7393 134.908 67.0895C133.573 67.4871 132.149 67.4697 130.824 67.0397C129.499 66.6097 128.337 65.7874 127.49 64.6817C126.811 63.7956 126.42 62.7231 126.368 61.6082C126.368 60.9789 126.368 60.3495 126.368 59.7111V40.5218H126.258ZM148.439 27.4432C151.048 27.4432 153.649 27.4432 156.258 27.4432C157.39 27.4432 157.536 27.2882 157.554 26.2393C157.554 24.5885 157.636 22.9195 157.554 21.2687C157.262 15.7053 152.873 12.0389 147.298 12.6408C145.231 12.8365 143.305 13.7771 141.879 15.2873C140.454 16.7976 139.627 18.7744 139.552 20.8492C139.488 22.5 139.552 24.1599 139.552 25.8198C139.552 27.4797 139.607 27.4523 141.121 27.4615C143.53 27.4523 145.975 27.4432 148.439 27.4432Z" fill="#32322F"/>
<path d="M99.3877 27.2789C99.6483 26.423 99.726 25.5219 99.6158 24.634C99.6158 19.1618 99.6158 13.6896 99.6158 8.27206C99.6158 7.71572 99.6158 7.15937 99.6158 6.61215C99.2691 1.78747 104.899 -1.67827 109.652 0.948397C110.569 1.43151 111.345 2.14283 111.906 3.01359C112.467 3.88435 112.794 4.88508 112.855 5.919C112.91 6.54831 112.855 7.18673 112.855 7.81604V59.5195C112.891 60.2273 112.891 60.9366 112.855 61.6445C112.699 63.0315 112.092 64.3292 111.128 65.3389C110.164 66.3486 108.896 67.0147 107.517 67.2353C106.069 67.5036 104.573 67.2925 103.256 66.6342C101.939 65.9758 100.872 64.9061 100.218 63.5872C99.7966 62.5592 99.6157 61.4487 99.6888 60.3403V42.8292C99.6888 42.0357 99.6888 41.2513 99.6888 40.4579C99.6888 40.216 99.5927 39.984 99.4216 39.813C99.2505 39.6419 99.0184 39.5458 98.7764 39.5458C98.229 39.5458 97.6724 39.4911 97.125 39.4911H78.8769C76.4225 39.4911 76.4955 39.4364 76.4955 41.7894V59.1182C76.4955 59.7566 76.4955 60.3859 76.4955 61.0152C76.4991 62.3321 76.0839 63.6161 75.3098 64.6816C74.5357 65.7472 73.4428 66.5393 72.1889 66.9435C70.9144 67.4014 69.5328 67.4726 68.2179 67.1481C66.9029 66.8235 65.7133 66.1177 64.7985 65.1194C63.8681 64.1253 63.3244 62.8312 63.2656 61.4712C63.2656 60.8419 63.2656 60.2035 63.2656 59.5742V7.90725C63.2656 7.36002 63.2656 6.80368 63.2656 6.24733C63.2656 2.50798 66.824 -0.410541 70.7109 0.10932C72.3283 0.294597 73.8155 1.08518 74.8735 2.32207C75.9314 3.55896 76.4816 5.1504 76.4134 6.77632C76.3313 12.6225 76.4134 18.4778 76.4134 24.3239C76.4134 27.9721 75.9754 27.4705 79.5429 27.4887C85.3215 27.4887 91.1001 27.4887 96.8786 27.4887C97.7208 27.5678 98.5704 27.4968 99.3877 27.2789Z" fill="#32322F"/>
<path d="M49.8079 40.8413C49.8079 47.0918 49.8079 53.3392 49.8079 59.5837C49.8492 60.6097 49.7385 61.6362 49.4794 62.6299C49.0356 64.1627 48.0523 65.4833 46.7108 66.3482C45.3693 67.2131 43.7601 67.564 42.1802 67.336C40.6785 67.1316 39.2945 66.4124 38.2644 65.3012C37.2343 64.19 36.6221 62.7558 36.5324 61.2436C36.4777 60.4501 36.5324 59.6566 36.5324 58.8723C36.5324 47.9278 36.5324 37.0168 36.5324 26.1392C36.5689 23.7596 36.0569 21.4034 35.0361 19.2533C34.419 17.8996 33.5396 16.6816 32.4486 15.6698C31.3577 14.6579 30.0769 13.8723 28.6804 13.3583C27.2838 12.8444 25.7991 12.6123 24.3123 12.6754C22.8254 12.7386 21.3658 13.0958 20.0179 13.7264C15.7478 15.6234 13.8318 19.1986 13.3573 23.6311C13.3162 24.421 13.3162 25.2125 13.3573 26.0024V58.9635C13.3573 59.5928 13.3573 60.2312 13.3573 60.8605C13.3137 62.5453 12.6299 64.1503 11.4449 65.3491C10.2599 66.548 8.6626 67.2508 6.97778 67.3147C5.29296 67.3786 3.64703 66.7988 2.37457 65.6931C1.10212 64.5873 0.298628 63.0388 0.127449 61.3621C0.0802142 60.8102 0.0649862 60.2559 0.0818329 59.7022C0.0818329 47.2924 0.0818329 34.8826 0.0818329 22.4728C0.0371661 19.8602 0.416156 17.2576 1.20409 14.7661C2.62297 10.3513 5.63472 6.62223 9.65296 4.30505C13.0491 2.32145 16.8043 1.02891 20.7022 0.501851C25.975 -0.31902 31.3713 0.272637 36.3408 2.21648C43.859 5.10764 48.2021 10.5981 49.4794 18.5328C49.7071 20.0176 49.8169 21.518 49.8079 23.0201C49.8018 28.9726 49.8018 34.913 49.8079 40.8413Z" fill="#31322F"/>
<path d="M363.211 40.4034C363.211 34.4021 363.211 28.3918 363.211 22.3815C363.193 20.3235 363.428 18.2711 363.913 16.2708C364.501 13.7584 365.602 11.3945 367.147 9.32753C368.692 7.26053 370.647 5.53503 372.891 4.25929C376.965 1.95551 381.502 0.589712 386.171 0.261523C390.84 -0.0666665 395.524 0.651025 399.88 2.36225C407.179 5.27165 411.404 10.6892 412.654 18.4232C412.892 19.9069 413.008 21.4077 413.001 22.9105C413.001 35.0041 413.001 47.1008 413.001 59.2005C413.023 59.9093 413.005 60.6188 412.946 61.3255C412.806 62.8517 412.145 64.2832 411.072 65.3783C409.999 66.4733 408.582 67.165 407.058 67.3364C405.534 67.5079 403.998 67.1487 402.709 66.3195C401.42 65.4903 400.456 64.2418 399.98 62.7848C399.743 61.8654 399.653 60.9141 399.716 59.9666V31.2647C399.716 29.4407 399.716 27.6166 399.716 25.7925C399.708 23.4925 399.185 21.2235 398.183 19.1529C396.93 16.4669 394.665 14.3847 391.883 13.3597C389.101 12.3348 386.026 12.4501 383.329 13.6806C378.94 15.5686 376.997 19.1529 376.523 23.7131C376.486 24.424 376.486 25.1363 376.523 25.8472V59.5288C376.523 60.003 376.523 60.4408 376.523 60.9516C376.49 62.6373 375.816 64.2473 374.637 65.4531C373.458 66.659 371.864 67.3699 370.178 67.4408C368.493 67.5118 366.844 66.9375 365.568 65.835C364.292 64.7325 363.485 63.185 363.311 61.5079C363.244 60.8017 363.223 60.0919 363.247 59.3829C363.217 53.0533 363.204 46.7268 363.211 40.4034Z" fill="#31322F"/>
<path d="M211.86 37.6213V59.191C211.86 59.8203 211.86 60.4496 211.86 61.0881C211.96 64.5173 208.967 67.1713 205.674 67.3173C204.001 67.4716 202.334 66.9668 201.029 65.9105C199.723 64.8542 198.882 63.3299 198.685 61.6626C198.618 60.8771 198.596 60.0884 198.621 59.3005C198.621 44.7078 198.621 30.0879 198.621 15.4406C198.621 11.9475 198.876 12.3761 195.619 12.3579C192.535 12.3579 189.451 12.3579 186.367 12.3579C185.259 12.4004 184.154 12.2044 183.128 11.7833C181.983 11.3137 181.011 10.503 180.344 9.46145C179.676 8.41992 179.346 7.19815 179.398 5.96234C179.45 4.72653 179.881 3.53669 180.633 2.55468C181.386 1.57267 182.423 0.84617 183.603 0.474018C184.737 0.129083 185.922 -0.0220061 187.106 0.027118C196.991 0.027118 206.872 0.027118 216.75 0.027118H223.858C224.729 0.00891969 225.599 0.116432 226.44 0.346333C227.79 0.697413 228.984 1.49132 229.829 2.6009C230.674 3.71048 231.123 5.07155 231.102 6.46611C230.983 7.8979 230.384 9.24759 229.402 10.2969C228.42 11.3462 227.113 12.0338 225.692 12.2484C224.987 12.337 224.276 12.3705 223.566 12.3488C220.637 12.3488 217.717 12.3488 214.789 12.3488C214.159 12.3488 213.52 12.3488 212.891 12.3488C212.261 12.3488 211.978 12.6771 211.896 13.4067C211.814 14.1363 211.896 14.8295 211.896 15.5318L211.86 37.6213Z" fill="#32332F"/>
<path d="M303.894 37.4119V59.465C303.894 60.0214 303.894 60.5777 303.894 61.1249C304.104 64.3079 301.111 67.3359 297.507 67.3541C293.903 67.3724 291.011 64.9646 290.737 61.4441C290.683 60.7419 290.737 60.0214 290.737 59.31C290.737 44.7174 290.737 30.0944 290.737 15.441C290.737 11.9843 291.02 12.3948 287.708 12.3765C284.624 12.3765 281.54 12.3765 278.456 12.3765C277.427 12.4214 276.4 12.2569 275.436 11.8931C274.203 11.4365 273.152 10.59 272.444 9.48213C271.736 8.37429 271.409 7.06569 271.513 5.75512C271.635 4.4879 272.149 3.29011 272.983 2.32764C273.817 1.36518 274.929 0.685668 276.166 0.383221C277.005 0.159759 277.871 0.049338 278.739 0.0548867C291.16 0.0548867 303.578 0.0548867 315.993 0.0548867C316.862 0.0555023 317.727 0.172053 318.566 0.401459C319.917 0.756816 321.108 1.55837 321.947 2.67595C322.785 3.79353 323.22 5.1615 323.182 6.55771C323.063 7.99428 322.454 9.34646 321.458 10.3888C320.462 11.431 319.138 12.1004 317.708 12.2853C317.002 12.366 316.292 12.3964 315.582 12.3765H306.558C306.002 12.3765 305.445 12.3765 304.898 12.3765C304.195 12.3765 303.985 12.6775 303.922 13.4345C303.858 14.1915 303.922 14.6931 303.922 15.3315L303.894 37.4119Z" fill="#32332E"/>
<path d="M251.012 114.752C244.857 114.911 238.724 113.956 232.909 111.934C226.739 109.856 221.148 106.346 216.596 101.692C212.445 97.5049 209.675 92.1486 208.658 86.3423C208.327 84.2313 208.211 82.0924 208.311 79.9581C208.322 79.2452 208.51 78.5462 208.858 77.9242C209.328 77.1372 210.077 76.5557 210.956 76.2955C211.835 76.0353 212.78 76.1153 213.603 76.5197C213.926 76.6691 214.214 76.8867 214.445 77.1574C214.677 77.4282 214.847 77.7457 214.944 78.0884C215.001 78.3197 215.043 78.5542 215.072 78.7906C216.733 88.5859 224.807 97.2412 233.402 100.506C237.163 101.962 241.11 102.883 245.127 103.242C250.957 103.821 256.842 103.539 262.59 102.403C271.44 100.525 278.484 96.019 283.448 88.3853C285.342 85.459 286.624 82.1797 287.216 78.745C287.291 78.1952 287.518 77.6771 287.871 77.2486C288.223 76.8202 288.689 76.4983 289.214 76.319C289.633 76.1364 290.084 76.0421 290.541 76.042C290.998 76.0419 291.45 76.1359 291.868 76.3182C292.287 76.5005 292.664 76.7672 292.975 77.1016C293.286 77.436 293.524 77.8309 293.676 78.2617C293.908 78.9329 294.019 79.6401 294.004 80.3502C294.335 87.2152 292.119 93.9606 287.781 99.2932C283.834 104.167 278.757 108.005 272.991 110.475C266.075 113.52 258.566 114.981 251.012 114.752Z" fill="#FFFEFB"/>
<path d="M336.586 33.6997V8.33591C336.586 7.77957 336.586 7.22323 336.586 6.676C336.221 1.91517 341.668 -1.53234 346.34 0.829841C347.313 1.28858 348.146 1.99719 348.755 2.88329C349.364 3.76939 349.727 4.80122 349.807 5.87341C349.844 6.58129 349.844 7.29058 349.807 7.99846V59.4465C349.836 60.2375 349.815 61.0295 349.743 61.8178C349.49 63.472 348.607 64.9646 347.28 65.9841C345.952 67.0037 344.282 67.4715 342.617 67.29C339.223 67.0711 336.486 64.2985 336.559 61.1611C336.559 60.5318 336.559 59.9025 336.559 59.2732L336.586 33.6997Z" fill="#32322F"/>
<path d="M211.331 166H206.112C205.641 166.017 205.168 166.002 204.698 165.955C204.182 165.898 203.702 165.661 203.344 165.286C202.985 164.91 202.77 164.421 202.737 163.902C202.68 163.348 202.825 162.791 203.145 162.334C203.465 161.877 203.938 161.55 204.479 161.413C205.1 161.304 205.73 161.264 206.359 161.294H216.085C216.717 161.322 217.35 161.285 217.974 161.185C218.409 161.133 218.828 160.991 219.206 160.77C219.584 160.548 219.912 160.25 220.169 159.895C220.426 159.541 220.607 159.137 220.7 158.709C220.793 158.281 220.797 157.838 220.711 157.409C220.698 157.312 220.664 157.218 220.611 157.136C220.559 157.053 220.489 156.983 220.406 156.93C220.324 156.877 220.231 156.843 220.134 156.829C220.037 156.816 219.938 156.824 219.844 156.852C219.406 157.007 218.932 157.208 218.53 157.372C216.136 158.256 213.527 158.383 211.058 157.737C206.496 156.588 203.758 153.523 202.892 148.881C202.637 147.358 202.689 145.799 203.046 144.296C203.403 142.793 204.058 141.377 204.971 140.131C205.884 138.885 207.038 137.834 208.364 137.041C209.69 136.247 211.161 135.727 212.691 135.511C214.681 135.261 216.702 135.543 218.547 136.329C220.392 137.116 221.995 138.377 223.193 139.985C224.391 141.593 225.14 143.491 225.365 145.483C225.589 147.475 225.28 149.491 224.47 151.325C224.236 151.81 224.125 152.344 224.146 152.882C224.166 153.419 224.319 153.943 224.589 154.408C225.189 155.641 225.465 157.006 225.391 158.376C225.316 159.745 224.894 161.072 224.163 162.233C223.432 163.393 222.418 164.348 221.215 165.007C220.012 165.667 218.661 166.008 217.289 166C215.319 166 213.339 166 211.359 166H211.331ZM207.39 146.729C207.35 147.63 207.491 148.529 207.807 149.374C208.122 150.219 208.604 150.992 209.225 151.646C209.845 152.301 210.592 152.823 211.419 153.183C212.246 153.543 213.137 153.733 214.039 153.741C214.941 153.749 215.836 153.575 216.669 153.23C217.502 152.884 218.258 152.375 218.89 151.732C219.522 151.088 220.018 150.324 220.348 149.485C220.678 148.646 220.836 147.749 220.811 146.847C220.79 145.054 220.072 143.339 218.808 142.066C217.545 140.793 215.835 140.061 214.041 140.025C210.109 140.062 207.226 143.765 207.39 146.729Z" fill="#FFFEF7"/>
<path d="M262.39 139.186C262.39 136.824 262.39 134.453 262.39 132.082C262.39 131.534 262.39 130.978 262.39 130.431C262.417 129.833 262.662 129.265 263.079 128.835C263.495 128.405 264.055 128.142 264.652 128.096C265.292 128.072 265.916 128.295 266.396 128.717C266.877 129.14 267.177 129.73 267.235 130.367C267.285 130.836 267.303 131.309 267.289 131.781C267.289 132.419 267.289 133.048 267.289 133.678C267.289 134.59 267.481 134.745 268.457 134.754C271.067 134.754 273.667 134.754 276.276 134.754C276.905 134.717 277.536 134.717 278.165 134.754C278.763 134.813 279.319 135.087 279.73 135.525C280.141 135.962 280.379 136.534 280.401 137.134C280.389 137.731 280.165 138.304 279.768 138.75C279.372 139.197 278.829 139.487 278.238 139.569C277.69 139.635 277.138 139.659 276.587 139.642H269.789C269.233 139.642 268.685 139.642 268.129 139.706C267.929 139.713 267.739 139.798 267.601 139.943C267.463 140.088 267.387 140.281 267.39 140.481C267.274 142.767 267.295 145.057 267.453 147.34C267.605 148.5 268.054 149.601 268.756 150.538C269.458 151.474 270.39 152.213 271.461 152.685C272.532 153.156 273.707 153.343 274.872 153.228C276.037 153.113 277.152 152.7 278.11 152.028C278.366 151.855 278.585 151.608 278.849 151.444C279.356 151.058 279.99 150.879 280.624 150.944C281.258 151.008 281.843 151.311 282.262 151.791C282.469 152.033 282.623 152.317 282.715 152.622C282.806 152.928 282.833 153.249 282.793 153.566C282.754 153.882 282.649 154.187 282.485 154.461C282.321 154.735 282.102 154.972 281.842 155.156C280.693 156.251 279.302 157.06 277.782 157.518C272.125 159.178 264.88 156.78 262.791 149.511C262.505 148.363 262.376 147.182 262.408 145.999C262.408 143.701 262.408 141.439 262.408 139.122L262.39 139.186Z" fill="#FFFEF9"/>
<path d="M247.098 158.083C245.592 158.083 244.087 158.083 242.59 158.083C242.294 158.112 241.996 158.08 241.713 157.987C241.43 157.894 241.171 157.743 240.95 157.544C240.729 157.344 240.552 157.101 240.431 156.83C240.31 156.558 240.247 156.265 240.245 155.967C240.216 155.37 240.408 154.782 240.785 154.317C241.162 153.853 241.698 153.544 242.289 153.45C242.84 153.381 243.395 153.354 243.95 153.368H249.871C250.423 153.376 250.974 153.351 251.523 153.295C252.013 153.229 252.464 152.994 252.8 152.631C253.135 152.267 253.333 151.799 253.36 151.305C253.387 150.812 253.241 150.324 252.948 149.927C252.654 149.529 252.231 149.246 251.751 149.127C251.205 149.04 250.652 149.003 250.099 149.018C248.603 149.018 247.098 148.936 245.601 149.018C241.286 149.273 237.627 144.321 239.598 139.551C240.055 138.314 240.877 137.245 241.956 136.486C243.034 135.727 244.319 135.313 245.638 135.301C248.548 135.164 251.477 135.301 254.406 135.301C254.716 135.305 255.023 135.354 255.318 135.446C255.794 135.597 256.208 135.9 256.496 136.307C256.784 136.715 256.931 137.205 256.915 137.704C256.898 138.203 256.719 138.683 256.404 139.071C256.09 139.458 255.657 139.733 255.172 139.852C254.626 139.937 254.073 139.967 253.521 139.943H246.888C246.334 139.925 245.78 139.968 245.236 140.07C244.781 140.212 244.386 140.5 244.11 140.889C243.835 141.278 243.696 141.747 243.713 142.223C243.731 142.699 243.905 143.156 244.208 143.524C244.511 143.891 244.927 144.149 245.391 144.257C246.018 144.325 246.649 144.353 247.28 144.339C248.859 144.339 250.446 144.266 252.015 144.403C253.57 144.58 255.018 145.282 256.121 146.392C257.224 147.502 257.915 148.955 258.082 150.51C258.249 152.066 257.881 153.632 257.038 154.95C256.196 156.268 254.93 157.261 253.448 157.764C252.766 157.966 252.06 158.073 251.349 158.083C249.926 158.138 248.503 158.083 247.088 158.083H247.098Z" fill="#FFFDF5"/>
<path d="M327.9 158.084C326.395 158.084 324.899 158.084 323.393 158.084C323.097 158.115 322.798 158.085 322.515 157.996C322.231 157.907 321.969 157.76 321.744 157.565C321.52 157.37 321.338 157.13 321.211 156.862C321.083 156.593 321.012 156.301 321.003 156.004C320.97 155.366 321.186 154.739 321.607 154.258C322.027 153.776 322.619 153.477 323.256 153.423C323.808 153.368 324.363 153.35 324.917 153.368C326.888 153.368 328.858 153.368 330.838 153.368C331.469 153.382 332.099 153.327 332.718 153.204C333.108 153.11 333.456 152.89 333.708 152.579C333.96 152.267 334.103 151.881 334.114 151.48C334.184 151.05 334.114 150.608 333.916 150.219C333.717 149.83 333.4 149.515 333.01 149.319C332.432 149.082 331.808 148.982 331.185 149.027C329.607 149.027 328.019 148.936 326.441 149.027C324.847 149.032 323.306 148.453 322.111 147.399C320.915 146.345 320.148 144.89 319.953 143.309C319.683 141.698 319.994 140.045 320.829 138.642C321.664 137.239 322.971 136.178 324.515 135.647C325.343 135.377 326.209 135.241 327.079 135.246C329.607 135.246 332.134 135.246 334.661 135.246C335.055 135.232 335.45 135.26 335.838 135.328C336.382 135.442 336.867 135.748 337.202 136.19C337.537 136.633 337.701 137.182 337.663 137.736C337.635 138.254 337.429 138.747 337.08 139.13C336.731 139.514 336.26 139.766 335.747 139.843C335.275 139.898 334.799 139.916 334.324 139.898H327.937C327.386 139.878 326.834 139.899 326.285 139.961C325.773 140.042 325.309 140.309 324.982 140.712C324.655 141.114 324.489 141.623 324.515 142.141C324.503 142.655 324.683 143.156 325.021 143.544C325.358 143.932 325.829 144.18 326.34 144.239C327.754 144.33 329.178 144.239 330.601 144.303C331.547 144.289 332.492 144.344 333.43 144.467C335.039 144.778 336.481 145.662 337.488 146.955C338.495 148.248 338.998 149.863 338.904 151.499C338.886 153.096 338.285 154.632 337.216 155.819C336.146 157.006 334.68 157.763 333.092 157.947C331.36 158.038 329.624 158.038 327.891 157.947L327.9 158.084Z" fill="#FFFDF5"/>
<path d="M187.025 158.522C185.534 158.544 184.053 158.262 182.674 157.694C181.294 157.127 180.045 156.284 179.001 155.219C177.957 154.154 177.141 152.887 176.602 151.497C176.063 150.106 175.813 148.62 175.866 147.13C175.874 145.619 176.185 144.124 176.78 142.735C177.375 141.345 178.242 140.089 179.331 139.04C180.419 137.991 181.707 137.171 183.118 136.627C184.528 136.084 186.034 135.828 187.545 135.876C194.169 135.94 198.731 141.895 198.613 147.504C198.494 153.113 193.558 158.85 187.025 158.522ZM193.923 147.313C193.913 145.511 193.189 143.787 191.91 142.519C190.631 141.25 188.9 140.54 187.098 140.545C185.34 140.583 183.666 141.307 182.434 142.561C181.202 143.815 180.508 145.5 180.501 147.258C180.501 150.906 183.74 154.189 187.326 154.044C189.084 153.996 190.756 153.268 191.986 152.012C193.217 150.756 193.912 149.071 193.923 147.313Z" fill="#FFFEF7"/>
<path d="M307.198 158.074C301.048 158.266 295.738 152.766 295.747 146.847C295.806 143.854 297.009 140.997 299.11 138.863C301.211 136.729 304.049 135.48 307.043 135.374C309.438 135.296 311.79 136.025 313.721 137.444C314.106 137.72 314.469 138.025 314.807 138.356C315.042 138.538 315.238 138.766 315.383 139.025C315.528 139.285 315.619 139.571 315.65 139.867C315.682 140.162 315.653 140.461 315.566 140.745C315.48 141.03 315.336 141.293 315.145 141.521C314.751 141.969 314.209 142.261 313.619 142.344C313.028 142.428 312.427 142.298 311.924 141.977C311.513 141.731 311.167 141.393 310.774 141.138C309.763 140.427 308.561 140.036 307.324 140.017C306.088 139.997 304.874 140.35 303.84 141.028C302.752 141.617 301.856 142.506 301.259 143.589C300.662 144.673 300.389 145.905 300.473 147.139C300.534 148.268 300.88 149.364 301.481 150.322C302.081 151.281 302.916 152.071 303.906 152.618C304.896 153.165 306.009 153.452 307.14 153.45C308.272 153.449 309.384 153.161 310.373 152.611C310.911 152.28 311.432 151.921 311.933 151.535C312.257 151.305 312.637 151.165 313.033 151.13C313.429 151.095 313.827 151.165 314.187 151.334C314.538 151.463 314.85 151.679 315.093 151.963C315.336 152.246 315.502 152.588 315.575 152.954C315.649 153.32 315.627 153.699 315.511 154.054C315.396 154.409 315.191 154.729 314.917 154.983C313.305 156.645 311.168 157.698 308.867 157.965C308.32 158.047 307.763 158.047 307.198 158.074Z" fill="#FFFEF7"/>
<path d="M163.768 140.745C163.768 137.508 163.768 134.27 163.768 131.032C163.733 130.639 163.783 130.244 163.915 129.872C164.048 129.501 164.259 129.162 164.534 128.88C164.795 128.579 165.135 128.357 165.515 128.238C165.895 128.119 166.301 128.107 166.687 128.205C167.114 128.306 167.504 128.525 167.811 128.839C168.117 129.152 168.329 129.546 168.421 129.974C168.518 130.598 168.552 131.231 168.521 131.862C168.521 137.389 168.521 142.913 168.521 148.434C168.521 149.072 168.521 149.702 168.521 150.331C168.521 151.089 168.787 151.823 169.272 152.407C169.757 152.99 170.431 153.385 171.176 153.523C171.55 153.623 171.97 153.596 172.344 153.687C172.847 153.804 173.297 154.082 173.627 154.479C173.956 154.876 174.147 155.37 174.169 155.885C174.114 156.398 173.9 156.881 173.556 157.265C173.213 157.65 172.757 157.917 172.253 158.028C171.079 158.252 169.864 158.106 168.777 157.609C167.293 157.025 166.02 156.007 165.126 154.686C164.232 153.366 163.758 151.807 163.768 150.212C163.704 147.057 163.768 143.901 163.768 140.745Z" fill="#FFFEF7"/>
<path d="M234.652 146.811V154.372C234.672 154.923 234.651 155.475 234.588 156.023C234.526 156.576 234.261 157.088 233.846 157.46C233.43 157.831 232.892 158.037 232.335 158.038C231.738 158.091 231.143 157.912 230.674 157.538C230.206 157.165 229.899 156.625 229.817 156.032C229.762 155.563 229.743 155.09 229.762 154.618V139.022C229.762 138.63 229.762 138.229 229.762 137.837C229.774 137.52 229.851 137.21 229.986 136.924C230.122 136.639 230.314 136.383 230.551 136.174C230.788 135.964 231.065 135.804 231.365 135.705C231.666 135.605 231.983 135.567 232.298 135.593C232.897 135.593 233.473 135.826 233.902 136.243C234.331 136.661 234.581 137.229 234.598 137.827C234.652 138.375 234.598 138.931 234.598 139.478L234.652 146.811Z" fill="#FFFEFA"/>
<path d="M291.523 146.802V154.363C291.546 154.913 291.527 155.465 291.468 156.013C291.393 156.608 291.09 157.15 290.625 157.527C290.159 157.904 289.565 158.087 288.968 158.038C288.412 158.04 287.874 157.84 287.456 157.473C287.038 157.107 286.767 156.601 286.696 156.05C286.639 155.581 286.617 155.108 286.632 154.636V139.022C286.61 138.627 286.61 138.231 286.632 137.836C286.67 137.222 286.941 136.646 287.389 136.224C287.838 135.803 288.43 135.568 289.046 135.568C289.661 135.568 290.254 135.803 290.702 136.224C291.15 136.646 291.421 137.222 291.459 137.836C291.486 138.307 291.486 138.779 291.459 139.25L291.523 146.802Z" fill="#FFFEFA"/>
<path d="M234.643 130.668C234.638 131.301 234.389 131.907 233.946 132.359C233.504 132.812 232.903 133.075 232.27 133.094C231.932 133.104 231.595 133.045 231.28 132.92C230.966 132.795 230.679 132.608 230.44 132.369C230.2 132.13 230.011 131.845 229.885 131.53C229.76 131.216 229.699 130.88 229.708 130.541C229.717 130.203 229.794 129.87 229.936 129.562C230.078 129.255 230.281 128.98 230.533 128.754C230.784 128.527 231.08 128.355 231.4 128.246C231.721 128.138 232.061 128.096 232.398 128.123C233.028 128.177 233.613 128.471 234.031 128.945C234.449 129.419 234.668 130.036 234.643 130.668Z" fill="#FFFDF1"/>
<path d="M291.504 130.813C291.445 131.282 291.251 131.724 290.945 132.085C290.64 132.445 290.236 132.709 289.783 132.844C289.33 132.979 288.847 132.98 288.394 132.846C287.941 132.711 287.537 132.448 287.23 132.088C286.924 131.728 286.729 131.287 286.67 130.818C286.61 130.349 286.688 129.873 286.895 129.448C287.101 129.023 287.427 128.667 287.832 128.423C288.237 128.18 288.705 128.06 289.177 128.077C289.513 128.094 289.843 128.179 290.145 128.328C290.447 128.477 290.715 128.686 290.933 128.942C291.151 129.198 291.314 129.497 291.412 129.819C291.51 130.141 291.542 130.479 291.504 130.813Z" fill="#FFFDF1"/>
</g>
<defs>
<clipPath id="clip0">
<rect width="413" height="166" fill="white"/>
</clipPath>
</defs>
</svg>
